<svg width="468" height="190" viewBox="0 0 468 190" fill="none" xmlns="http://www.w3.org/2000/svg">
<path d="M3.40176 53.3141C3.96872 53.7617 4.93852 54.3735 6.31117 55.1493C7.71365 55.9251 9.04153 56.3131 10.2948 56.3131C11.5779 56.3131 12.2195 55.8207 12.2195 54.836C12.2195 54.3884 12.0405 54.0005 11.6824 53.6722C11.3243 53.3141 10.6678 52.9113 9.71293 52.4637C8.75805 52.0161 8.04189 51.6729 7.56445 51.4342C7.08701 51.1657 6.44545 50.7479 5.63977 50.1809C4.86392 49.5841 4.26712 48.9724 3.84936 48.3458C2.65576 46.6449 2.05896 44.4815 2.05896 41.8556C2.05896 39.2297 3.02876 37.0215 4.96836 35.2311C6.93781 33.4108 9.50405 32.5007 12.6671 32.5007C14.8156 32.5007 16.7999 32.7394 18.6202 33.2169C20.4404 33.6645 21.3804 34.2613 21.4401 35.0073C21.4401 35.0968 21.4401 35.1863 21.4401 35.2758C21.4401 36.3202 21.1118 37.6481 20.4553 39.2595C19.7989 40.841 19.3363 41.7213 19.0678 41.9003C17.158 40.9156 15.4422 40.4233 13.9204 40.4233C12.4284 40.4233 11.6824 40.9604 11.6824 42.0346C11.6824 42.6911 12.2344 43.273 13.3385 43.7803C13.5772 43.8996 13.9204 44.0637 14.368 44.2726C14.8156 44.4815 15.3229 44.7351 15.8898 45.0335C16.4866 45.3021 17.1133 45.6602 17.7697 46.1078C18.4561 46.5255 19.1871 47.0925 19.963 47.8087C21.5445 49.3007 22.3353 51.2701 22.3353 53.717C22.3353 56.9099 21.455 59.5209 19.6944 61.55C17.9339 63.5791 15.2184 64.6235 11.5481 64.6832C9.75769 64.6832 8.13141 64.534 6.66925 64.2356C5.23692 63.9372 3.98364 63.3553 2.9094 62.49C1.83516 61.6246 1.29804 60.5802 1.29804 59.3568C1.29804 58.1333 1.52184 56.9248 1.96944 55.7312C2.41704 54.5077 2.89448 53.7021 3.40176 53.3141ZM38.4153 64.6832C34.2377 64.6832 30.821 63.3106 28.1653 60.5653C25.5393 57.82 24.2264 53.8214 24.2264 48.5696C24.2264 43.2879 25.5543 39.2893 28.21 36.5739C30.8956 33.8584 34.3421 32.5007 38.5496 32.5007C42.7869 32.5007 46.2036 33.8435 48.7996 36.5291C51.3957 39.1849 52.6938 43.2282 52.6938 48.6591C52.6938 54.0601 51.3659 58.0885 48.7101 60.7443C46.0544 63.3702 42.6227 64.6832 38.4153 64.6832ZM38.4601 41.0947C37.0277 41.0947 35.8192 41.7511 34.8345 43.0641C33.8796 44.3771 33.4022 46.2271 33.4022 48.6143C33.4022 50.9717 33.8647 52.7919 34.7897 54.0751C35.7148 55.3283 36.9233 55.955 38.4153 55.955C39.9371 55.955 41.1606 55.3134 42.0856 54.0303C43.0405 52.7472 43.5179 50.912 43.5179 48.5248C43.5179 46.1376 43.0256 44.3025 42.0409 43.0193C41.086 41.7362 39.8924 41.0947 38.4601 41.0947ZM63.9415 63.609C63.9415 64.0864 62.5241 64.3251 59.6893 64.3251C56.8246 64.3251 55.3923 64.1013 55.3923 63.6537V34.4702C55.3923 33.4258 55.9443 32.9036 57.0484 32.9036H65.5976C73.4455 32.9036 77.3695 35.9622 77.3695 42.0794C77.3695 43.9295 77.0114 45.6154 76.2952 47.1373C75.5791 48.6293 74.5645 49.8229 73.2516 50.7181L78.8913 60.1177C78.6526 60.8338 77.8768 61.6544 76.5638 62.5795C74.7734 63.8626 73.2963 64.5042 72.1326 64.5042C70.9688 64.5042 70.1034 64.0864 69.5365 63.2509L65.329 53.4484H63.9415V63.609ZM63.9415 40.8261V47.5401H64.1653C67.0001 47.5401 68.4175 46.3614 68.4175 44.0041C68.4175 42.9298 68.134 42.1391 67.567 41.6318C67.0299 41.0947 66.1347 40.8261 64.8814 40.8261H63.9415ZM94.3713 63.5194C94.3713 64.1162 92.8942 64.4146 89.9401 64.4146C86.9859 64.4146 85.5088 64.1162 85.5088 63.5194V41.0499H80.1376C79.6303 41.0499 79.2722 40.3636 79.0634 38.9909C78.9738 38.3345 78.9291 37.6631 78.9291 36.9767C78.9291 36.2904 78.9738 35.619 79.0634 34.9625C79.2722 33.5899 79.6303 32.9036 80.1376 32.9036H99.6082C100.116 32.9036 100.474 33.5899 100.682 34.9625C100.772 35.619 100.817 36.2904 100.817 36.9767C100.817 37.6631 100.772 38.3345 100.682 38.9909C100.474 40.3636 100.116 41.0499 99.6082 41.0499H94.3713V63.5194ZM117.018 45.3469C117.585 45.3469 117.868 46.3913 117.868 48.4801C117.868 49.1067 117.794 49.8527 117.644 50.7181C117.525 51.5536 117.286 51.9713 116.928 51.9713H111.244V56.4473H119.48C119.987 56.4473 120.33 57.1038 120.509 58.4168C120.599 58.9838 120.643 59.5955 120.643 60.252C120.643 60.8786 120.554 61.6992 120.375 62.7138C120.196 63.7283 119.897 64.2356 119.48 64.2356H104.172C103.038 64.2356 102.471 63.7731 102.471 62.848V34.0673C102.471 33.2915 102.814 32.9036 103.5 32.9036H119.524C120.151 32.9036 120.464 34.2314 120.464 36.8872C120.464 39.5131 120.151 40.8261 119.524 40.8261H111.244V45.3469H117.018ZM126.604 56.5369V40.6023H123.426C122.919 40.6023 122.56 39.9607 122.352 38.6776C122.262 38.051 122.217 37.4094 122.217 36.7529C122.217 36.0964 122.262 35.4549 122.352 34.8282C122.56 33.5451 122.919 32.9036 123.426 32.9036H138.465C138.972 32.9036 139.316 33.5451 139.495 34.8282C139.614 35.4549 139.674 36.0964 139.674 36.7529C139.674 37.4094 139.614 38.051 139.495 38.6776C139.316 39.9607 138.972 40.6023 138.465 40.6023H135.466V56.5369H138.599C139.107 56.5369 139.465 57.1784 139.674 58.4616C139.793 59.0882 139.853 59.7298 139.853 60.3862C139.853 61.0427 139.793 61.6843 139.674 62.3109C139.465 63.594 139.107 64.2356 138.599 64.2356H123.515C123.008 64.2356 122.665 63.594 122.486 62.3109C122.366 61.6843 122.307 61.0427 122.307 60.3862C122.307 59.7298 122.366 59.0882 122.486 58.4616C122.665 57.1784 123.008 56.5369 123.515 56.5369H126.604ZM155.237 64.6832C151.06 64.6832 147.643 63.3106 144.987 60.5653C142.361 57.82 141.048 53.8214 141.048 48.5696C141.048 43.2879 142.376 39.2893 145.032 36.5739C147.718 33.8584 151.164 32.5007 155.372 32.5007C159.609 32.5007 163.026 33.8435 165.622 36.5291C168.218 39.1849 169.516 43.2282 169.516 48.6591C169.516 54.0601 168.188 58.0885 165.532 60.7443C162.876 63.3702 159.445 64.6832 155.237 64.6832ZM155.282 41.0947C153.85 41.0947 152.641 41.7511 151.656 43.0641C150.702 44.3771 150.224 46.2271 150.224 48.6143C150.224 50.9717 150.687 52.7919 151.612 54.0751C152.537 55.3283 153.745 55.955 155.237 55.955C156.759 55.955 157.983 55.3134 158.908 54.0303C159.862 52.7472 160.34 50.912 160.34 48.5248C160.34 46.1376 159.848 44.3025 158.863 43.0193C157.908 41.7362 156.714 41.0947 155.282 41.0947Z" fill="#087891"/>
<path d="M231.836 44.4958C231.836 45.5737 231.768 46.6966 231.634 47.8643H205.561C205.741 50.1998 206.482 51.9964 207.784 53.254C209.132 54.4666 210.771 55.073 212.702 55.073C215.577 55.073 217.576 53.8603 218.698 51.435H230.96C230.331 53.9052 229.186 56.1285 227.524 58.1047C225.907 60.0809 223.863 61.6304 221.393 62.7533C218.923 63.8761 216.161 64.4375 213.107 64.4375C209.424 64.4375 206.145 63.6515 203.27 62.0795C200.396 60.5076 198.15 58.2619 196.533 55.3425C194.917 52.4231 194.108 49.0096 194.108 45.1021C194.108 41.1946 194.894 37.7812 196.466 34.8618C198.083 31.9424 200.329 29.6967 203.203 28.1247C206.078 26.5527 209.379 25.7667 213.107 25.7667C216.745 25.7667 219.978 26.5302 222.808 28.0573C225.638 29.5844 227.838 31.7627 229.41 34.5923C231.027 37.4218 231.836 40.723 231.836 44.4958ZM220.046 41.4641C220.046 39.4879 219.372 37.9159 218.025 36.7481C216.677 35.5804 214.993 34.9965 212.972 34.9965C211.041 34.9965 209.401 35.5579 208.054 36.6808C206.751 37.8036 205.943 39.3981 205.628 41.4641H220.046ZM273.687 26.3057V63.8986H262.167V58.7784C260.999 60.4402 259.405 61.7876 257.383 62.8206C255.407 63.8087 253.206 64.3028 250.781 64.3028C247.907 64.3028 245.369 63.674 243.168 62.4164C240.967 61.1139 239.261 59.25 238.048 56.8246C236.835 54.3993 236.229 51.5472 236.229 48.2685V26.3057H247.682V46.719C247.682 49.2342 248.333 51.1879 249.636 52.5803C250.938 53.9726 252.69 54.6688 254.891 54.6688C257.136 54.6688 258.911 53.9726 260.213 52.5803C261.516 51.1879 262.167 49.2342 262.167 46.719V26.3057H273.687Z" fill="#FF0099"/>
<path d="M81.0983 92.6968C81.0983 88.969 81.8618 85.6453 83.3889 82.7259C84.9609 79.8065 87.0494 77.5384 89.6544 75.9215C92.3043 74.2597 95.1788 73.4288 98.2778 73.4288C100.658 73.4288 102.792 73.8555 104.678 74.7088C106.564 75.5173 108.092 76.6626 109.259 78.1447V73.833H120.78V129.347H109.259V106.71C107.957 108.282 106.362 109.54 104.476 110.483C102.634 111.426 100.524 111.897 98.1431 111.897C95.089 111.897 92.2594 111.089 89.6544 109.472C87.0494 107.855 84.9609 105.587 83.3889 102.668C81.8618 99.7483 81.0983 96.4247 81.0983 92.6968ZM109.259 92.6295C109.259 90.6083 108.855 88.9241 108.047 87.5766C107.283 86.1843 106.273 85.1513 105.015 84.4776C103.757 83.759 102.432 83.3997 101.04 83.3997C99.6926 83.3997 98.3901 83.759 97.1325 84.4776C95.875 85.1513 94.8419 86.1843 94.0335 87.5766C93.225 88.969 92.8208 90.6757 92.8208 92.6968C92.8208 94.7179 93.225 96.4247 94.0335 97.817C94.8419 99.1644 95.875 100.197 97.1325 100.916C98.3901 101.59 99.6926 101.927 101.04 101.927C102.387 101.927 103.69 101.59 104.948 100.916C106.25 100.197 107.283 99.142 108.047 97.7496C108.855 96.3573 109.259 94.6506 109.259 92.6295ZM164.888 73.833V111.426H153.368V106.306C152.2 107.968 150.605 109.315 148.584 110.348C146.608 111.336 144.407 111.83 141.982 111.83C139.108 111.83 136.57 111.201 134.369 109.944C132.168 108.641 130.462 106.777 129.249 104.352C128.036 101.927 127.43 99.0746 127.43 95.7959V73.833H138.883V94.2464C138.883 96.7615 139.534 98.7153 140.837 100.108C142.139 101.5 143.891 102.196 146.092 102.196C148.337 102.196 150.111 101.5 151.414 100.108C152.716 98.7153 153.368 96.7615 153.368 94.2464V73.833H164.888ZM207.253 92.0231C207.253 93.1011 207.185 94.2239 207.051 95.3917H180.978C181.158 97.7272 181.899 99.5237 183.201 100.781C184.549 101.994 186.188 102.6 188.119 102.6C190.994 102.6 192.993 101.388 194.115 98.9623H206.377C205.748 101.433 204.603 103.656 202.941 105.632C201.324 107.608 199.281 109.158 196.81 110.281C194.34 111.403 191.578 111.965 188.524 111.965C184.841 111.965 181.562 111.179 178.688 109.607C175.813 108.035 173.567 105.789 171.95 102.87C170.334 99.9504 169.525 96.537 169.525 92.6295C169.525 88.7219 170.311 85.3085 171.883 82.3891C173.5 79.4697 175.746 77.224 178.62 75.652C181.495 74.08 184.796 73.294 188.524 73.294C192.162 73.294 195.395 74.0576 198.225 75.5846C201.055 77.1117 203.255 79.29 204.827 82.1196C206.444 84.9492 207.253 88.2504 207.253 92.0231ZM195.463 88.9914C195.463 87.0152 194.789 85.4432 193.442 84.2755C192.094 83.1077 190.41 82.5238 188.389 82.5238C186.458 82.5238 184.818 83.0853 183.471 84.2081C182.168 85.331 181.36 86.9254 181.045 88.9914H195.463ZM223.503 80.0985C224.851 78.0325 226.535 76.4156 228.556 75.2478C230.577 74.0351 232.823 73.4288 235.293 73.4288V85.6229H232.127C229.252 85.6229 227.096 86.2517 225.659 87.5093C224.222 88.7219 223.503 90.8778 223.503 93.9769V111.426H211.983V73.833H223.503V80.0985ZM256.564 111.965C252.882 111.965 249.558 111.179 246.594 109.607C243.674 108.035 241.361 105.789 239.654 102.87C237.993 99.9504 237.162 96.537 237.162 92.6295C237.162 88.7669 238.015 85.3759 239.722 82.4565C241.428 79.4922 243.764 77.224 246.728 75.652C249.693 74.08 253.016 73.294 256.699 73.294C260.382 73.294 263.706 74.08 266.67 75.652C269.634 77.224 271.97 79.4922 273.677 82.4565C275.383 85.3759 276.237 88.7669 276.237 92.6295C276.237 96.492 275.361 99.9055 273.609 102.87C271.903 105.789 269.545 108.035 266.535 109.607C263.571 111.179 260.247 111.965 256.564 111.965ZM256.564 101.994C258.765 101.994 260.629 101.186 262.156 99.5686C263.728 97.9517 264.514 95.6387 264.514 92.6295C264.514 89.6202 263.751 87.3072 262.224 85.6903C260.741 84.0734 258.9 83.2649 256.699 83.2649C254.453 83.2649 252.59 84.0734 251.107 85.6903C249.625 87.2622 248.884 89.5753 248.884 92.6295C248.884 95.6387 249.603 97.9517 251.04 99.5686C252.522 101.186 254.364 101.994 256.564 101.994Z" fill="#FF0099"/>
<path d="M177.818 119.661V169.515H166.298V119.661H177.818ZM190.614 128.014C188.593 128.014 186.931 127.431 185.628 126.263C184.371 125.05 183.742 123.568 183.742 121.816C183.742 120.02 184.371 118.538 185.628 117.37C186.931 116.157 188.593 115.551 190.614 115.551C192.59 115.551 194.207 116.157 195.464 117.37C196.767 118.538 197.418 120.02 197.418 121.816C197.418 123.568 196.767 125.05 195.464 126.263C194.207 127.431 192.59 128.014 190.614 128.014ZM196.34 131.922V169.515H184.82V131.922H196.34ZM226.248 131.518C230.649 131.518 234.152 132.955 236.757 135.83C239.407 138.659 240.732 142.567 240.732 147.552V169.515H229.279V149.102C229.279 146.586 228.628 144.633 227.325 143.24C226.023 141.848 224.271 141.152 222.071 141.152C219.87 141.152 218.118 141.848 216.816 143.24C215.513 144.633 214.862 146.586 214.862 149.102V169.515H203.341V131.922H214.862V136.907C216.03 135.246 217.602 133.943 219.578 133C221.554 132.012 223.777 131.518 226.248 131.518ZM261.673 131.383C264.323 131.383 266.636 131.922 268.612 133C270.633 134.078 272.183 135.493 273.261 137.244V131.922H284.781V169.448C284.781 172.906 284.085 176.027 282.693 178.812C281.345 181.642 279.257 183.887 276.427 185.549C273.643 187.211 270.162 188.042 265.985 188.042C260.415 188.042 255.902 186.717 252.443 184.067C248.985 181.462 247.009 177.914 246.515 173.422H257.9C258.26 174.86 259.113 175.982 260.46 176.791C261.808 177.644 263.47 178.071 265.446 178.071C267.826 178.071 269.713 177.375 271.105 175.982C272.542 174.635 273.261 172.457 273.261 169.448V164.125C272.138 165.877 270.588 167.314 268.612 168.437C266.636 169.515 264.323 170.054 261.673 170.054C258.574 170.054 255.767 169.268 253.252 167.696C250.736 166.079 248.738 163.811 247.256 160.891C245.818 157.927 245.1 154.514 245.1 150.651C245.1 146.788 245.818 143.397 247.256 140.478C248.738 137.559 250.736 135.313 253.252 133.741C255.767 132.169 258.574 131.383 261.673 131.383ZM273.261 150.718C273.261 147.844 272.452 145.576 270.835 143.914C269.263 142.252 267.332 141.421 265.042 141.421C262.751 141.421 260.797 142.252 259.18 143.914C257.608 145.531 256.822 147.777 256.822 150.651C256.822 153.526 257.608 155.816 259.18 157.523C260.797 159.185 262.751 160.016 265.042 160.016C267.332 160.016 269.263 159.185 270.835 157.523C272.452 155.861 273.261 153.593 273.261 150.718ZM327.205 150.112C327.205 151.19 327.138 152.313 327.003 153.481H300.931C301.11 155.816 301.851 157.613 303.154 158.87C304.501 160.083 306.141 160.689 308.072 160.689C310.946 160.689 312.945 159.477 314.068 157.051H326.329C325.701 159.522 324.555 161.745 322.894 163.721C321.277 165.697 319.233 167.247 316.763 168.37C314.293 169.492 311.53 170.054 308.476 170.054C304.793 170.054 301.515 169.268 298.64 167.696C295.766 166.124 293.52 163.878 291.903 160.959C290.286 158.039 289.478 154.626 289.478 150.718C289.478 146.811 290.264 143.397 291.836 140.478C293.453 137.559 295.698 135.313 298.573 133.741C301.447 132.169 304.748 131.383 308.476 131.383C312.114 131.383 315.348 132.147 318.178 133.674C321.007 135.201 323.208 137.379 324.78 140.209C326.397 143.038 327.205 146.339 327.205 150.112ZM315.415 147.08C315.415 145.104 314.742 143.532 313.394 142.364C312.047 141.197 310.363 140.613 308.341 140.613C306.41 140.613 304.771 141.174 303.423 142.297C302.121 143.42 301.312 145.014 300.998 147.08H315.415ZM343.456 138.187C344.803 136.121 346.488 134.505 348.509 133.337C350.53 132.124 352.775 131.518 355.246 131.518V143.712H352.079C349.205 143.712 347.049 144.341 345.612 145.598C344.174 146.811 343.456 148.967 343.456 152.066V169.515H331.935V131.922H343.456V138.187ZM365.199 128.014C363.178 128.014 361.516 127.431 360.213 126.263C358.956 125.05 358.327 123.568 358.327 121.816C358.327 120.02 358.956 118.538 360.213 117.37C361.516 116.157 363.178 115.551 365.199 115.551C367.175 115.551 368.792 116.157 370.049 117.37C371.352 118.538 372.003 120.02 372.003 121.816C372.003 123.568 371.352 125.05 370.049 126.263C368.792 127.431 367.175 128.014 365.199 128.014ZM370.925 131.922V169.515H359.405V131.922H370.925ZM413.364 150.112C413.364 151.19 413.296 152.313 413.161 153.481H387.089C387.269 155.816 388.01 157.613 389.312 158.87C390.66 160.083 392.299 160.689 394.23 160.689C397.105 160.689 399.103 159.477 400.226 157.051H412.488C411.859 159.522 410.714 161.745 409.052 163.721C407.435 165.697 405.391 167.247 402.921 168.37C400.451 169.492 397.689 170.054 394.634 170.054C390.952 170.054 387.673 169.268 384.798 167.696C381.924 166.124 379.678 163.878 378.061 160.959C376.444 158.039 375.636 154.626 375.636 150.718C375.636 146.811 376.422 143.397 377.994 140.478C379.611 137.559 381.857 135.313 384.731 133.741C387.605 132.169 390.907 131.383 394.634 131.383C398.273 131.383 401.506 132.147 404.336 133.674C407.165 135.201 409.366 137.379 410.938 140.209C412.555 143.038 413.364 146.339 413.364 150.112ZM401.574 147.08C401.574 145.104 400.9 143.532 399.553 142.364C398.205 141.197 396.521 140.613 394.5 140.613C392.568 140.613 390.929 141.174 389.582 142.297C388.279 143.42 387.471 145.014 387.156 147.08H401.574Z" fill="#FF0099"/>
<path d="M456.24 109.498L440.02 159.697L424.646 155.429L436.625 104.053L456.24 109.498ZM425.063 184.78C421.882 183.897 419.522 182.252 417.982 179.845C416.533 177.387 416.191 174.78 416.956 172.023C417.741 169.196 419.388 167.103 421.897 165.744C424.477 164.404 427.357 164.176 430.538 165.059C433.648 165.922 435.928 167.583 437.377 170.041C438.897 172.519 439.265 175.171 438.48 177.999C437.715 180.755 436.042 182.803 433.463 184.143C430.973 185.431 428.173 185.644 425.063 184.78Z" fill="#FF0099"/>
<path d="M98.6718 139.475V157.189H93.2434V154.776C92.6931 155.559 91.9418 156.194 90.9895 156.681C90.0583 157.147 89.0212 157.379 87.8784 157.379C86.5239 157.379 85.3282 157.083 84.2912 156.49C83.2542 155.877 82.4499 154.998 81.8785 153.856C81.3071 152.713 81.0214 151.369 81.0214 149.824V139.475H86.4181V149.094C86.4181 150.279 86.725 151.2 87.3387 151.856C87.9525 152.512 88.7779 152.84 89.8149 152.84C90.8731 152.84 91.709 152.512 92.3228 151.856C92.9365 151.2 93.2434 150.279 93.2434 149.094V139.475H98.6718ZM124.539 139.284C126.74 139.284 128.486 139.951 129.777 141.284C131.089 142.618 131.745 144.47 131.745 146.84V157.189H126.348V147.57C126.348 146.427 126.041 145.549 125.428 144.935C124.835 144.3 124.01 143.983 122.952 143.983C121.893 143.983 121.057 144.3 120.444 144.935C119.851 145.549 119.555 146.427 119.555 147.57V157.189H114.158V147.57C114.158 146.427 113.851 145.549 113.238 144.935C112.645 144.3 111.82 143.983 110.761 143.983C109.703 143.983 108.867 144.3 108.253 144.935C107.661 145.549 107.365 146.427 107.365 147.57V157.189H101.936V139.475H107.365V141.697C107.915 140.956 108.634 140.374 109.523 139.951C110.412 139.507 111.417 139.284 112.539 139.284C113.872 139.284 115.058 139.57 116.095 140.142C117.153 140.713 117.978 141.528 118.571 142.586C119.184 141.612 120.02 140.819 121.079 140.205C122.137 139.591 123.29 139.284 124.539 139.284ZM133.827 148.3C133.827 146.48 134.166 144.882 134.843 143.507C135.542 142.131 136.483 141.073 137.669 140.332C138.854 139.591 140.176 139.221 141.637 139.221C142.885 139.221 143.975 139.475 144.907 139.983C145.859 140.491 146.589 141.157 147.097 141.983V139.475H152.525V157.189H147.097V154.681C146.568 155.506 145.827 156.173 144.875 156.681C143.944 157.189 142.854 157.443 141.605 157.443C140.166 157.443 138.854 157.072 137.669 156.332C136.483 155.57 135.542 154.501 134.843 153.125C134.166 151.729 133.827 150.12 133.827 148.3ZM147.097 148.332C147.097 146.977 146.716 145.909 145.954 145.126C145.213 144.343 144.303 143.951 143.224 143.951C142.145 143.951 141.224 144.343 140.462 145.126C139.721 145.887 139.351 146.946 139.351 148.3C139.351 149.655 139.721 150.734 140.462 151.538C141.224 152.321 142.145 152.713 143.224 152.713C144.303 152.713 145.213 152.321 145.954 151.538C146.716 150.755 147.097 149.686 147.097 148.332Z" fill="#FF0099"/>
<path d="M357.301 0C371.091 0 376.554 11.894 376.554 33.6941C376.554 60.1236 349.327 74.9694 349.545 74.7605C349.327 74.9694 358.934 71.0002 366.269 67.8396C377.444 72.5501 382.444 85.7918 382.444 85.7918C382.444 85.7918 391.774 107.188 371.091 107.821C350.402 107.821 340.744 77.7591 337.803 67.7454C319.164 4.42066 357.301 0 357.301 0Z" fill="#FF0099"/>
<path d="M311.488 40.8972C319.131 38.5532 329.156 61.9065 331.335 67.0354C333.515 72.1644 342.97 91.1749 336.273 93.3701C329.774 94.5684 324.779 81.0896 324.106 72.0014C309.898 56.2167 308.017 41.9613 311.488 40.8972Z" fill="#FF0099"/>
</svg>
