<svg width="133" height="56" viewBox="0 0 133 56" fill="none" xmlns="http://www.w3.org/2000/svg">
<path d="M1.70257 34.1702C3.09544 35.0158 4.19598 35.4386 5.0042 35.4386C5.52007 35.4386 5.77801 35.2574 5.77801 34.895C5.77801 34.6361 5.33092 34.2996 4.43673 33.8854C2.28723 33.0053 1.21249 31.5643 1.21249 29.5624C1.21249 28.2853 1.67678 27.3103 2.60536 26.6373C3.53394 25.9642 4.64308 25.6277 5.93278 25.6277C7.23967 25.6277 8.34024 25.7658 9.2344 26.0419C10.1458 26.318 10.6015 26.6804 10.6015 27.1291C10.6015 27.5087 10.4123 28.0092 10.034 28.6305C9.6729 29.2518 9.42358 29.5883 9.28599 29.6401C8.54659 29.2259 7.74695 29.0188 6.88715 29.0188C6.42286 29.0188 6.19072 29.1828 6.19072 29.5106C6.19072 29.7177 6.2767 29.8989 6.44866 30.0542C6.63781 30.1923 6.97314 30.3735 7.45462 30.5979C7.9361 30.805 8.33161 30.9948 8.64114 31.1674C8.96784 31.3399 9.32895 31.5815 9.72449 31.8922C10.5499 32.548 10.9626 33.4022 10.9626 34.4549C10.9626 35.8356 10.5069 36.9572 9.59552 37.8202C8.6841 38.6657 7.30846 39.0886 5.46849 39.0886C4.24757 39.0886 3.13843 38.8815 2.14107 38.4673C1.14371 38.0531 0.64502 37.4836 0.64502 36.7588C0.64502 36.2756 0.756794 35.7665 0.980341 35.2315C1.22109 34.6966 1.46182 34.3427 1.70257 34.1702ZM25.6443 26.016C25.6443 25.8607 26.1173 25.783 27.0631 25.783C29.1954 25.783 30.2443 25.852 30.21 25.9901L27.6821 38.5709C27.6306 38.847 26.6762 38.985 24.8189 38.985C22.9619 38.985 22.0075 38.847 21.9559 38.5709L20.8983 32.7723L19.5828 38.5709C19.5313 38.8297 18.5425 38.9592 16.6165 38.9592C14.7077 38.9592 13.7275 38.8038 13.676 38.4932L11.3803 25.8865C11.3287 25.783 12.0682 25.7312 13.5986 25.7312C15.1119 25.7485 15.8684 25.783 15.8684 25.8348L17.055 34.5844L19.1959 25.9383C19.2303 25.8348 19.7977 25.783 20.8983 25.783C21.9989 25.783 22.5663 25.8348 22.6007 25.9383L24.7158 34.4808L25.6443 26.016ZM40.8874 38.1308C39.8041 38.7693 38.4112 39.0886 36.7088 39.0886C35.0064 39.0886 33.5705 38.5104 32.4012 37.3542C31.2319 36.1807 30.6472 34.5671 30.6472 32.5135C30.6472 30.4425 31.2061 28.7772 32.3238 27.5174C33.4588 26.2576 34.886 25.6277 36.6056 25.6277C38.3252 25.6277 39.6493 26.0678 40.5779 26.9479C41.5237 27.828 41.9966 28.898 41.9966 30.1578C41.9966 32.9535 40.3974 34.3514 37.1989 34.3514H35.4191C35.4191 34.8691 35.5566 35.2315 35.8318 35.4386C36.1241 35.6285 36.5454 35.7234 37.0957 35.7234C38.2994 35.7234 39.443 35.4473 40.5263 34.895C40.5435 34.8778 40.6209 34.9985 40.7585 35.2574C41.1712 35.9995 41.3775 36.6294 41.3775 37.1471C41.3775 37.6476 41.2141 37.9755 40.8874 38.1308ZM37.6632 30.6496C37.6632 29.9248 37.3106 29.5624 36.6056 29.5624C36.2789 29.5624 35.9951 29.666 35.7544 29.873C35.5308 30.0629 35.4191 30.3477 35.4191 30.7273V31.5298H36.812C37.3795 31.5298 37.6632 31.2364 37.6632 30.6496ZM52.9159 38.1308C51.8325 38.7693 50.4397 39.0886 48.7373 39.0886C47.0349 39.0886 45.5989 38.5104 44.4297 37.3542C43.2603 36.1807 42.6757 34.5671 42.6757 32.5135C42.6757 30.4425 43.2345 28.7772 44.3523 27.5174C45.4872 26.2576 46.9144 25.6277 48.6341 25.6277C50.3536 25.6277 51.6778 26.0678 52.6063 26.9479C53.5521 27.828 54.025 28.898 54.025 30.1578C54.025 32.9535 52.4258 34.3514 49.2273 34.3514H47.4476C47.4476 34.8691 47.5851 35.2315 47.8603 35.4386C48.1525 35.6285 48.5739 35.7234 49.1242 35.7234C50.3279 35.7234 51.4714 35.4473 52.5548 34.895C52.5719 34.8778 52.6493 34.9985 52.7869 35.2574C53.1996 35.9995 53.406 36.6294 53.406 37.1471C53.406 37.6476 53.2426 37.9755 52.9159 38.1308ZM49.6916 30.6496C49.6916 29.9248 49.3391 29.5624 48.6341 29.5624C48.3073 29.5624 48.0236 29.666 47.7829 29.873C47.5593 30.0629 47.4476 30.3477 47.4476 30.7273V31.5298H48.8404C49.4079 31.5298 49.6916 31.2364 49.6916 30.6496ZM61.1268 38.6744C61.1268 38.8815 60.4046 38.985 58.9601 38.985C57.2405 38.916 56.3807 38.8038 56.3807 38.6485V29.4848H55.0652C54.7213 29.4848 54.5494 28.8894 54.5494 27.6986C54.5494 27.388 54.5751 27.0083 54.6267 26.5596C54.6955 26.1109 54.8245 25.8865 55.0136 25.8865H56.3807V23.6085C56.3807 23.2634 57.103 23.0908 58.5474 23.0908C60.009 23.0908 60.7399 23.2289 60.7399 23.505V25.1617L60.7657 25.8865H62.9582C63.2505 25.8865 63.3967 26.4906 63.3967 27.6986C63.3967 28.9066 63.2505 29.5106 62.9582 29.5106H61.1268V38.6744Z" fill="#FF0099"/>
<path d="M2.29453 50.279C1.9602 50.279 1.65678 50.2158 1.38427 50.0894C1.11177 49.9607 0.895373 49.7757 0.735074 49.5345C0.574777 49.2908 0.494629 48.9967 0.494629 48.6519C0.494629 48.3486 0.554168 48.1027 0.673245 47.9142C0.792322 47.7235 0.951475 47.5741 1.1507 47.4661C1.34993 47.3581 1.56976 47.2777 1.8102 47.2248C2.05294 47.1697 2.29681 47.126 2.54184 47.0938C2.86244 47.0525 3.12234 47.0214 3.32157 47.0008C3.52308 46.9777 3.66964 46.9399 3.76123 46.8869C3.85512 46.8341 3.90207 46.7421 3.90207 46.6112V46.5836C3.90207 46.2435 3.80932 45.9792 3.62384 45.7907C3.44065 45.6023 3.16242 45.5081 2.78916 45.5081C2.40215 45.5081 2.09873 45.5931 1.8789 45.7632C1.65907 45.9332 1.5045 46.1148 1.41519 46.3078L0.645765 46.032C0.783162 45.7103 0.966355 45.4598 1.19535 45.2805C1.42664 45.099 1.67853 44.9726 1.95103 44.9014C2.22582 44.8278 2.49604 44.791 2.76168 44.791C2.93113 44.791 3.12578 44.8117 3.34561 44.8531C3.56774 44.8922 3.78184 44.9738 3.98794 45.0979C4.19633 45.222 4.36921 45.4092 4.50661 45.6598C4.64401 45.9102 4.71271 46.2458 4.71271 46.6663V50.1549H3.90207V49.4379H3.86085C3.80589 49.5528 3.71429 49.6758 3.58605 49.8068C3.45782 49.9377 3.28722 50.0492 3.07425 50.1412C2.86129 50.2331 2.60138 50.279 2.29453 50.279ZM2.41818 49.5482C2.73878 49.5482 3.00899 49.485 3.22882 49.3586C3.45095 49.2322 3.61812 49.0691 3.73032 48.8691C3.84482 48.6692 3.90207 48.4589 3.90207 48.2383V47.4937C3.86772 47.5351 3.79215 47.5729 3.67536 47.6075C3.56086 47.6396 3.42805 47.6683 3.27691 47.6936C3.12806 47.7166 2.98265 47.7373 2.84068 47.7557C2.70099 47.7718 2.58764 47.7855 2.50062 47.797C2.28995 47.8246 2.09301 47.8694 1.90982 47.9315C1.72891 47.9912 1.58235 48.082 1.47014 48.2038C1.36023 48.3233 1.30527 48.4865 1.30527 48.6933C1.30527 48.976 1.40946 49.1897 1.61785 49.3345C1.82853 49.477 2.0953 49.5482 2.41818 49.5482ZM8.33572 50.2653C7.84106 50.2653 7.41513 50.1481 7.0579 49.9136C6.70067 49.6792 6.42588 49.3563 6.23352 48.945C6.04116 48.5336 5.94499 48.0636 5.94499 47.5351C5.94499 46.9973 6.04345 46.5227 6.24039 46.1113C6.43961 45.6977 6.71669 45.3748 7.07164 45.1427C7.42886 44.9083 7.84564 44.791 8.32193 44.791C8.69288 44.791 9.02724 44.86 9.32491 44.9979C9.62267 45.1358 9.86651 45.3288 10.0566 45.577C10.2466 45.8252 10.3646 46.1148 10.4104 46.4457H9.5997C9.53787 46.2044 9.40052 45.9907 9.18756 45.8046C8.97686 45.6161 8.69288 45.5218 8.33572 45.5218C8.01968 45.5218 7.74259 45.6046 7.50443 45.77C7.26857 45.9332 7.08423 46.1642 6.95141 46.463C6.82089 46.7595 6.75563 47.1076 6.75563 47.5075C6.75563 47.9166 6.81974 48.2728 6.94798 48.5761C7.07851 48.8795 7.2617 49.115 7.49757 49.2828C7.73572 49.4506 8.0151 49.5345 8.33572 49.5345C8.54634 49.5345 8.73754 49.4977 8.90931 49.4241C9.08108 49.3506 9.22649 49.2449 9.34555 49.1069C9.4646 48.9691 9.54932 48.8036 9.5997 48.6106H10.4104C10.3646 48.9231 10.2512 49.2047 10.0704 49.4551C9.89174 49.7034 9.65467 49.901 9.35933 50.0481C9.06617 50.1929 8.72496 50.2653 8.33572 50.2653ZM13.8075 50.2653C13.2991 50.2653 12.8606 50.1527 12.4919 49.9275C12.1256 49.6999 11.8427 49.3828 11.6435 48.976C11.4465 48.5669 11.3481 48.0912 11.3481 47.5488C11.3481 47.0065 11.4465 46.5284 11.6435 46.1148C11.8427 45.6988 12.1198 45.3748 12.4748 45.1427C12.832 44.9083 13.2487 44.791 13.725 44.791C13.9999 44.791 14.2712 44.837 14.5392 44.929C14.8071 45.0209 15.0509 45.1703 15.2708 45.3771C15.4906 45.5816 15.6658 45.8528 15.7963 46.1906C15.9269 46.5284 15.9921 46.9444 15.9921 47.4385V47.7833H11.9252V47.08H15.1677C15.1677 46.7812 15.1082 46.5147 14.9891 46.2802C14.8723 46.0459 14.7052 45.8609 14.4877 45.7252C14.2724 45.5896 14.0182 45.5218 13.725 45.5218C13.4022 45.5218 13.1228 45.6023 12.887 45.7632C12.6534 45.9217 12.4736 46.1286 12.3476 46.3837C12.2217 46.6388 12.1588 46.9123 12.1588 47.2041V47.6729C12.1588 48.0728 12.2275 48.4118 12.3648 48.6898C12.5045 48.9656 12.698 49.1759 12.9453 49.3207C13.1926 49.4632 13.4801 49.5345 13.8075 49.5345C14.0205 49.5345 14.2129 49.5045 14.3846 49.4448C14.5586 49.3828 14.7086 49.2908 14.8346 49.169C14.9605 49.0449 15.0579 48.891 15.1265 48.7071L15.9097 48.9278C15.8272 49.1943 15.6887 49.4287 15.494 49.631C15.2994 49.8309 15.059 49.9872 14.7728 50.0998C14.4864 50.2101 14.1647 50.2653 13.8075 50.2653ZM20.9624 46.0459L20.2342 46.2526C20.1884 46.1309 20.1209 46.0126 20.0316 45.8976C19.9446 45.7804 19.8255 45.6839 19.6743 45.6081C19.5232 45.5322 19.3297 45.4943 19.0939 45.4943C18.771 45.4943 18.5019 45.569 18.2866 45.7183C18.0737 45.8654 17.9672 46.0528 17.9672 46.2802C17.9672 46.4825 18.0404 46.6422 18.1871 46.7595C18.3336 46.8766 18.5626 46.9743 18.874 47.0525L19.6572 47.2455C20.1289 47.3604 20.4804 47.5362 20.7117 47.7729C20.943 48.0073 21.0587 48.3095 21.0587 48.6795C21.0587 48.9829 20.9716 49.2541 20.7976 49.4931C20.6258 49.7321 20.3854 49.9205 20.0762 50.0584C19.7671 50.1963 19.4076 50.2653 18.9976 50.2653C18.4595 50.2653 18.0142 50.1481 17.6615 49.9136C17.3089 49.6792 17.0856 49.3368 16.9917 48.8863L17.7611 48.6933C17.8344 48.9783 17.9729 49.192 18.1767 49.3345C18.3829 49.477 18.6519 49.5482 18.9839 49.5482C19.3617 49.5482 19.6618 49.4678 19.8839 49.3069C20.1083 49.1437 20.2205 48.9484 20.2205 48.7209C20.2205 48.537 20.1564 48.3831 20.0281 48.2589C19.8999 48.1326 19.7029 48.0383 19.4373 47.9763L18.558 47.7694C18.0749 47.6546 17.7199 47.4764 17.4932 47.2351C17.2688 46.9915 17.1565 46.6871 17.1565 46.3216C17.1565 46.0228 17.2401 45.7585 17.4073 45.5287C17.5768 45.299 17.8069 45.1185 18.0978 44.9875C18.3908 44.8566 18.7229 44.791 19.0939 44.791C19.616 44.791 20.0259 44.906 20.3235 45.1358C20.6235 45.3656 20.8365 45.6689 20.9624 46.0459ZM26.0161 46.0459L25.2879 46.2526C25.242 46.1309 25.1745 46.0126 25.0852 45.8976C24.9982 45.7804 24.8791 45.6839 24.728 45.6081C24.5769 45.5322 24.3833 45.4943 24.1475 45.4943C23.8246 45.4943 23.5555 45.569 23.3403 45.7183C23.1273 45.8654 23.0209 46.0528 23.0209 46.2802C23.0209 46.4825 23.0941 46.6422 23.2407 46.7595C23.3872 46.8766 23.6162 46.9743 23.9277 47.0525L24.7108 47.2455C25.1825 47.3604 25.5341 47.5362 25.7653 47.7729C25.9966 48.0073 26.1123 48.3095 26.1123 48.6795C26.1123 48.9829 26.0252 49.2541 25.8512 49.4931C25.6795 49.7321 25.439 49.9205 25.1298 50.0584C24.8207 50.1963 24.4612 50.2653 24.0513 50.2653C23.5132 50.2653 23.0678 50.1481 22.7151 49.9136C22.3625 49.6792 22.1392 49.3368 22.0453 48.8863L22.8147 48.6933C22.888 48.9783 23.0266 49.192 23.2303 49.3345C23.4365 49.477 23.7055 49.5482 24.0375 49.5482C24.4154 49.5482 24.7154 49.4678 24.9375 49.3069C25.1619 49.1437 25.2741 48.9484 25.2741 48.7209C25.2741 48.537 25.21 48.3831 25.0818 48.2589C24.9535 48.1326 24.7566 48.0383 24.4909 47.9763L23.6116 47.7694C23.1285 47.6546 22.7735 47.4764 22.5468 47.2351C22.3224 46.9915 22.2102 46.6871 22.2102 46.3216C22.2102 46.0228 22.2938 45.7585 22.461 45.5287C22.6304 45.299 22.8605 45.1185 23.1514 44.9875C23.4444 44.8566 23.7765 44.791 24.1475 44.791C24.6696 44.791 25.0794 44.906 25.3772 45.1358C25.6771 45.3656 25.8901 45.6689 26.0161 46.0459ZM29.4759 50.2653C28.9996 50.2653 28.5817 50.1515 28.2221 49.924C27.8649 49.6964 27.5856 49.3782 27.3841 48.9691C27.1848 48.56 27.0852 48.082 27.0852 47.5351C27.0852 46.9834 27.1848 46.502 27.3841 46.0907C27.5856 45.6793 27.8649 45.3598 28.2221 45.1323C28.5817 44.9048 28.9996 44.791 29.4759 44.791C29.9522 44.791 30.369 44.9048 30.7262 45.1323C31.0857 45.3598 31.3651 45.6793 31.5643 46.0907C31.7658 46.502 31.8666 46.9834 31.8666 47.5351C31.8666 48.082 31.7658 48.56 31.5643 48.9691C31.3651 49.3782 31.0857 49.6964 30.7262 49.924C30.369 50.1515 29.9522 50.2653 29.4759 50.2653ZM29.4759 49.5345C29.8377 49.5345 30.1354 49.4414 30.369 49.2552C30.6026 49.0691 30.7754 48.8243 30.8876 48.5209C30.9999 48.2176 31.056 47.889 31.056 47.5351C31.056 47.1812 30.9999 46.8513 30.8876 46.5457C30.7754 46.24 30.6026 45.993 30.369 45.8046C30.1354 45.6161 29.8377 45.5218 29.4759 45.5218C29.1141 45.5218 28.8163 45.6161 28.5828 45.8046C28.3492 45.993 28.1763 46.24 28.0641 46.5457C27.9519 46.8513 27.8958 47.1812 27.8958 47.5351C27.8958 47.889 27.9519 48.2176 28.0641 48.5209C28.1763 48.8243 28.3492 49.0691 28.5828 49.2552C28.8163 49.4414 29.1141 49.5345 29.4759 49.5345ZM29.1049 44.143L29.9431 42.5435H30.8911L29.8194 44.143H29.1049ZM33.104 50.1549V44.86H33.8872V45.6598H33.9422C34.0383 45.3977 34.2124 45.1852 34.4643 45.022C34.7161 44.8588 35.0001 44.7773 35.3161 44.7773C35.3757 44.7773 35.4501 44.7784 35.5394 44.7807C35.6287 44.783 35.6962 44.7864 35.742 44.791V45.6183C35.7145 45.6115 35.6516 45.6011 35.5531 45.5874C35.4569 45.5713 35.355 45.5633 35.2474 45.5633C34.9909 45.5633 34.7619 45.6172 34.5604 45.7252C34.3612 45.8309 34.2032 45.978 34.0864 46.1665C33.9719 46.3526 33.9147 46.5652 33.9147 46.8043V50.1549H33.104ZM36.7029 50.1549V44.86H37.5136V50.1549H36.7029ZM37.1151 43.9775C36.9572 43.9775 36.8208 43.9235 36.7064 43.8155C36.5942 43.7075 36.5381 43.5776 36.5381 43.4259C36.5381 43.2743 36.5942 43.1444 36.7064 43.0364C36.8208 42.9284 36.9572 42.8744 37.1151 42.8744C37.2731 42.8744 37.4082 42.9284 37.5204 43.0364C37.635 43.1444 37.6922 43.2743 37.6922 43.4259C37.6922 43.5776 37.635 43.7075 37.5204 43.8155C37.4082 43.9235 37.2731 43.9775 37.1151 43.9775ZM41.1417 50.2653C40.6654 50.2653 40.2475 50.1515 39.888 49.924C39.5307 49.6964 39.2514 49.3782 39.0499 48.9691C38.8507 48.56 38.751 48.082 38.751 47.5351C38.751 46.9834 38.8507 46.502 39.0499 46.0907C39.2514 45.6793 39.5307 45.3598 39.888 45.1323C40.2475 44.9048 40.6654 44.791 41.1417 44.791C41.618 44.791 42.0348 44.9048 42.392 45.1323C42.7515 45.3598 43.0309 45.6793 43.2302 46.0907C43.4317 46.502 43.5324 46.9834 43.5324 47.5351C43.5324 48.082 43.4317 48.56 43.2302 48.9691C43.0309 49.3782 42.7515 49.6964 42.392 49.924C42.0348 50.1515 41.618 50.2653 41.1417 50.2653ZM41.1417 49.5345C41.5035 49.5345 41.8013 49.4414 42.0348 49.2552C42.2684 49.0691 42.4413 48.8243 42.5535 48.5209C42.6657 48.2176 42.7218 47.889 42.7218 47.5351C42.7218 47.1812 42.6657 46.8513 42.5535 46.5457C42.4413 46.24 42.2684 45.993 42.0348 45.8046C41.8013 45.6161 41.5035 45.5218 41.1417 45.5218C40.7799 45.5218 40.4822 45.6161 40.2486 45.8046C40.0151 45.993 39.8422 46.24 39.73 46.5457C39.6178 46.8513 39.5617 47.1812 39.5617 47.5351C39.5617 47.889 39.6178 48.2176 39.73 48.5209C39.8422 48.8243 40.0151 49.0691 40.2486 49.2552C40.4822 49.4414 40.7799 49.5345 41.1417 49.5345ZM48.507 46.0459L47.7788 46.2526C47.7331 46.1309 47.6655 46.0126 47.5762 45.8976C47.4891 45.7804 47.3701 45.6839 47.2189 45.6081C47.0678 45.5322 46.8743 45.4943 46.6384 45.4943C46.3156 45.4943 46.0465 45.569 45.8312 45.7183C45.6183 45.8654 45.5118 46.0528 45.5118 46.2802C45.5118 46.4825 45.5851 46.6422 45.7316 46.7595C45.8782 46.8766 46.1072 46.9743 46.4186 47.0525L47.2018 47.2455C47.6735 47.3604 48.025 47.5362 48.2563 47.7729C48.4876 48.0073 48.6032 48.3095 48.6032 48.6795C48.6032 48.9829 48.5162 49.2541 48.3422 49.4931C48.1704 49.7321 47.93 49.9205 47.6209 50.0584C47.3117 50.1963 46.9521 50.2653 46.5423 50.2653C46.0041 50.2653 45.5587 50.1481 45.2061 49.9136C44.8534 49.6792 44.6302 49.3368 44.5363 48.8863L45.3057 48.6933C45.379 48.9783 45.5175 49.192 45.7213 49.3345C45.9274 49.477 46.1965 49.5482 46.5286 49.5482C46.9064 49.5482 47.2064 49.4678 47.4284 49.3069C47.6529 49.1437 47.7651 48.9484 47.7651 48.7209C47.7651 48.537 47.701 48.3831 47.5727 48.2589C47.4445 48.1326 47.2476 48.0383 46.982 47.9763L46.1026 47.7694C45.6194 47.6546 45.2645 47.4764 45.0378 47.2351C44.8133 46.9915 44.7011 46.6871 44.7011 46.3216C44.7011 46.0228 44.7847 45.7585 44.9519 45.5287C45.1213 45.299 45.3515 45.1185 45.6423 44.9875C45.9355 44.8566 46.2675 44.791 46.6384 44.791C47.1606 44.791 47.5705 44.906 47.8682 45.1358C48.1682 45.3656 48.3811 45.6689 48.507 46.0459Z" fill="#FF0099"/>
<path d="M60.395 43.095V50.1549H59.5845V43.095H60.395ZM61.8798 50.1549V44.86H62.6905V50.1549H61.8798ZM62.292 43.9775C62.134 43.9775 61.9977 43.9235 61.8833 43.8155C61.7711 43.7074 61.715 43.5776 61.715 43.4259C61.715 43.2743 61.7711 43.1444 61.8833 43.0364C61.9977 42.9284 62.134 42.8744 62.292 42.8744C62.45 42.8744 62.5851 42.9284 62.6973 43.0364C62.8119 43.1444 62.8691 43.2743 62.8691 43.4259C62.8691 43.5776 62.8119 43.7074 62.6973 43.8155C62.5851 43.9235 62.45 43.9775 62.292 43.9775ZM64.9858 46.9697V50.1549H64.1752V44.86H64.9584V45.6873H65.0271C65.1507 45.4185 65.3385 45.2024 65.5903 45.0392C65.8422 44.8738 66.1675 44.791 66.5659 44.791C66.9232 44.791 67.2357 44.8646 67.5036 45.0116C67.7716 45.1564 67.9799 45.3771 68.1288 45.6735C68.2777 45.9677 68.3521 46.34 68.3521 46.7904V50.1549H67.5414V46.8456C67.5414 46.4296 67.4338 46.1056 67.2185 45.8735C67.0033 45.6391 66.7079 45.5218 66.3323 45.5218C66.0736 45.5218 65.8422 45.5781 65.6385 45.6907C65.437 45.8033 65.2778 45.9677 65.161 46.1837C65.0442 46.3998 64.9858 46.6617 64.9858 46.9697ZM71.963 52.2508C71.5714 52.2508 71.2348 52.2003 70.9531 52.0992C70.6715 52.0003 70.4368 51.8693 70.249 51.7062C70.0635 51.5453 69.9158 51.373 69.8059 51.1891L70.4516 50.7341C70.525 50.8306 70.6177 50.9409 70.7299 51.065C70.8421 51.1914 70.9955 51.3006 71.1901 51.3925C71.3871 51.4867 71.6447 51.5338 71.963 51.5338C72.389 51.5338 72.7404 51.4304 73.0176 51.2235C73.2946 51.0167 73.4332 50.6927 73.4332 50.2514V49.1759H73.3645C73.3049 49.2724 73.2202 49.3919 73.1102 49.5345C73.0026 49.6746 72.8469 49.7999 72.6431 49.9101C72.4416 50.0182 72.1691 50.0722 71.8256 50.0722C71.3997 50.0722 71.0172 49.9711 70.6784 49.7688C70.3418 49.5666 70.0749 49.2724 69.878 48.8863C69.6834 48.5002 69.5861 48.0314 69.5861 47.4799C69.5861 46.9375 69.6811 46.4652 69.8712 46.0631C70.0612 45.6586 70.3257 45.3461 70.6646 45.1255C71.0035 44.9025 71.3951 44.791 71.8393 44.791C72.1829 44.791 72.4553 44.8485 72.6568 44.9634C72.8607 45.076 73.0164 45.2047 73.124 45.3495C73.2339 45.492 73.3187 45.6092 73.3782 45.7011H73.4606V44.86H74.2438V50.3066C74.2438 50.7616 74.1407 51.1317 73.9347 51.4166C73.7308 51.7039 73.456 51.9141 73.1102 52.0475C72.7668 52.183 72.3844 52.2508 71.963 52.2508ZM71.9356 49.3414C72.2607 49.3414 72.5355 49.2667 72.7599 49.1173C72.9843 48.968 73.1549 48.753 73.2717 48.4727C73.3885 48.1923 73.4469 47.8568 73.4469 47.4661C73.4469 47.0846 73.3896 46.748 73.2752 46.4561C73.1606 46.1642 72.9912 45.9355 72.7668 45.77C72.5424 45.6046 72.2653 45.5218 71.9356 45.5218C71.592 45.5218 71.3058 45.6092 71.0768 45.7839C70.8501 45.9585 70.6795 46.1929 70.565 46.4871C70.4528 46.7812 70.3967 47.1076 70.3967 47.4661C70.3967 47.8338 70.454 48.159 70.5684 48.4417C70.6852 48.722 70.857 48.9426 71.0837 49.1035C71.3127 49.2621 71.5966 49.3414 71.9356 49.3414ZM77.9398 50.2653C77.4314 50.2653 76.9929 50.1527 76.6242 49.9275C76.2578 49.6999 75.975 49.3828 75.7758 48.976C75.5788 48.5669 75.4804 48.0912 75.4804 47.5488C75.4804 47.0065 75.5788 46.5284 75.7758 46.1148C75.975 45.6988 76.2521 45.3748 76.607 45.1427C76.9643 44.9082 77.381 44.791 77.8573 44.791C78.1322 44.791 78.4035 44.837 78.6714 44.929C78.9394 45.0209 79.1832 45.1703 79.4031 45.3771C79.6229 45.5816 79.7981 45.8528 79.9286 46.1906C80.0591 46.5284 80.1243 46.9444 80.1243 47.4385V47.7833H76.0574V47.08H79.3C79.3 46.7812 79.2405 46.5147 79.1214 46.2802C79.0046 46.0459 78.8375 45.8609 78.6199 45.7252C78.4046 45.5896 78.1505 45.5218 77.8573 45.5218C77.5345 45.5218 77.2551 45.6023 77.0192 45.7631C76.7856 45.9217 76.6059 46.1285 76.4799 46.3837C76.354 46.6388 76.291 46.9123 76.291 47.2041V47.6729C76.291 48.0728 76.3597 48.4118 76.4971 48.6898C76.6368 48.9656 76.8303 49.1759 77.0776 49.3207C77.3249 49.4632 77.6123 49.5345 77.9398 49.5345C78.1527 49.5345 78.3451 49.5045 78.5168 49.4448C78.6908 49.3828 78.8409 49.2908 78.9668 49.169C79.0927 49.0449 79.1901 48.8909 79.2588 48.7071L80.042 48.9278C79.9595 49.1943 79.8209 49.4287 79.6263 49.631C79.4317 49.8309 79.1913 49.9872 78.905 50.0998C78.6187 50.2101 78.297 50.2653 77.9398 50.2653ZM81.3574 50.1549V44.86H82.1409V45.6598H82.1957C82.2916 45.3977 82.4657 45.1852 82.718 45.022C82.9695 44.8588 83.2532 44.7773 83.5692 44.7773C83.6289 44.7773 83.7038 44.7784 83.7925 44.7807C83.882 44.783 83.9497 44.7864 83.9956 44.791V45.6183C83.9682 45.6115 83.9053 45.6011 83.807 45.5874C83.7103 45.5713 83.6087 45.5633 83.5007 45.5633C83.2444 45.5633 83.0154 45.6172 82.8139 45.7252C82.6148 45.8309 82.4568 45.978 82.34 46.1665C82.2255 46.3526 82.1683 46.5652 82.1683 46.8043V50.1549H81.3574ZM84.9564 50.1549V44.86H85.7673V50.1549H84.9564ZM85.3683 43.9775C85.2103 43.9775 85.0741 43.9235 84.9597 43.8155C84.8476 43.7074 84.7912 43.5776 84.7912 43.4259C84.7912 43.2743 84.8476 43.1444 84.9597 43.0364C85.0741 42.9284 85.2103 42.8744 85.3683 42.8744C85.5263 42.8744 85.6617 42.9284 85.7738 43.0364C85.8882 43.1444 85.9455 43.2743 85.9455 43.4259C85.9455 43.5776 85.8882 43.7074 85.7738 43.8155C85.6617 43.9235 85.5263 43.9775 85.3683 43.9775ZM89.4639 50.2653C88.9553 50.2653 88.5168 50.1527 88.1484 49.9275C87.7817 49.6999 87.4988 49.3828 87.2997 48.976C87.103 48.5669 87.0046 48.0912 87.0046 47.5488C87.0046 47.0065 87.103 46.5284 87.2997 46.1148C87.4988 45.6988 87.776 45.3748 88.1315 45.1427C88.4886 44.9082 88.9053 44.791 89.3817 44.791C89.6566 44.791 89.9274 44.837 90.1958 44.929C90.4634 45.0209 90.7077 45.1703 90.9269 45.3771C91.147 45.5816 91.3219 45.8528 91.4525 46.1906C91.5831 46.5284 91.6483 46.9444 91.6483 47.4385V47.7833H87.5818V47.08H90.8238C90.8238 46.7812 90.7649 46.5147 90.6456 46.2802C90.5287 46.0459 90.3619 45.8609 90.1442 45.7252C89.929 45.5896 89.6743 45.5218 89.3817 45.5218C89.0585 45.5218 88.7796 45.6023 88.5434 45.7631C88.3096 45.9217 88.1299 46.1285 88.0042 46.3837C87.8784 46.6388 87.8155 46.9123 87.8155 47.2041V47.6729C87.8155 48.0728 87.884 48.4118 88.0211 48.6898C88.1613 48.9656 88.3548 49.1759 88.6014 49.3207C88.8489 49.4632 89.1367 49.5345 89.4639 49.5345C89.6767 49.5345 89.8694 49.5045 90.0411 49.4448C90.2152 49.3828 90.3651 49.2908 90.4908 49.169C90.6166 49.0449 90.7141 48.8909 90.7826 48.7071L91.5661 48.9278C91.4839 49.1943 91.3453 49.4287 91.1502 49.631C90.9559 49.8309 90.7157 49.9872 90.4288 50.0998C90.1426 50.2101 89.821 50.2653 89.4639 50.2653Z" fill="#FF0099"/>
<path d="M68.064 20.9164C68.064 20.6403 68.8464 20.5022 70.4112 20.5022C71.8728 20.554 72.6037 20.6662 72.6037 20.8387V30.7791L75.1573 26.0419C75.2776 25.783 76.0085 25.6536 77.3498 25.6536C78.6911 25.6536 79.5509 25.7399 79.9292 25.9125L76.576 31.4004L80.4451 38.6744C80.4795 38.7434 80.1527 38.7952 79.4649 38.8297C78.7942 38.8815 78.2354 38.9074 77.7883 38.9074C76.1375 38.9074 75.2518 38.8297 75.1315 38.6744L72.5779 32.9277V38.6485C72.5779 38.8729 71.8213 38.9851 70.308 38.9851C68.812 38.9851 68.064 38.8815 68.064 38.6744V20.9164ZM85.9714 38.6744C85.9714 38.8125 85.1807 38.8815 83.5984 38.8815C82.0338 38.8815 81.2511 38.8211 81.2511 38.7003V25.9901C81.2511 25.8693 82.0338 25.8089 83.5984 25.8089C85.1807 25.8089 85.9714 25.8607 85.9714 25.9642V38.6744ZM85.9714 24.4369C85.9714 24.5577 85.1807 24.6181 83.5984 24.6181C82.0338 24.6181 81.2511 24.5664 81.2511 24.4628V20.7352C81.2511 20.5626 82.0338 20.4763 83.5984 20.4763C85.1807 20.4763 85.9714 20.5281 85.9714 20.6316V24.4369ZM88.3299 34.1702C89.7228 35.0158 90.8231 35.4386 91.6316 35.4386C92.1474 35.4386 92.4054 35.2574 92.4054 34.895C92.4054 34.6362 91.958 34.2996 91.0641 33.8854C88.9143 33.0053 87.8399 31.5643 87.8399 29.5624C87.8399 28.2853 88.3041 27.3103 89.2327 26.6373C90.1613 25.9642 91.2704 25.6277 92.5601 25.6277C93.8668 25.6277 94.9678 25.7658 95.8618 26.0419C96.7734 26.318 97.2288 26.6804 97.2288 27.1291C97.2288 27.5087 97.0394 28.0092 96.6614 28.6305C96.3003 29.2518 96.0512 29.5883 95.9134 29.6401C95.1742 29.2259 94.3746 29.0188 93.5145 29.0188C93.0502 29.0188 92.8181 29.1828 92.8181 29.5107C92.8181 29.7177 92.9043 29.899 93.076 30.0543C93.2654 30.1924 93.6008 30.3736 94.082 30.5979C94.5632 30.805 94.959 30.9948 95.2685 31.1674C95.595 31.3399 95.9561 31.5816 96.3519 31.8922C97.1773 32.548 97.59 33.4023 97.59 34.4549C97.59 35.8356 97.1345 36.9573 96.2229 37.8202C95.3112 38.6658 93.9361 39.0886 92.0959 39.0886C90.8747 39.0886 89.7655 38.8815 88.7684 38.4673C87.7713 38.0532 87.2724 37.4837 87.2724 36.7588C87.2724 36.2756 87.3844 35.7665 87.6077 35.2315C87.8487 34.6966 88.0889 34.3427 88.3299 34.1702ZM99.4262 34.1702C100.819 35.0158 101.92 35.4386 102.728 35.4386C103.244 35.4386 103.502 35.2574 103.502 34.895C103.502 34.6362 103.055 34.2996 102.16 33.8854C100.011 33.0053 98.9361 31.5643 98.9361 29.5624C98.9361 28.2853 99.4004 27.3103 100.329 26.6373C101.258 25.9642 102.367 25.6277 103.656 25.6277C104.964 25.6277 106.064 25.7658 106.958 26.0419C107.87 26.318 108.325 26.6804 108.325 27.1291C108.325 27.5087 108.136 28.0092 107.758 28.6305C107.396 29.2518 107.147 29.5883 107.01 29.6401C106.27 29.2259 105.471 29.0188 104.611 29.0188C104.146 29.0188 103.914 29.1828 103.914 29.5107C103.914 29.7177 104.001 29.899 104.172 30.0543C104.362 30.1924 104.697 30.3736 105.178 30.5979C105.66 30.805 106.055 30.9948 106.365 31.1674C106.692 31.3399 107.053 31.5816 107.448 31.8922C108.273 32.548 108.686 33.4023 108.686 34.4549C108.686 35.8356 108.231 36.9573 107.319 37.8202C106.408 38.6658 105.032 39.0886 103.192 39.0886C101.972 39.0886 100.863 38.8815 99.8647 38.4673C98.8676 38.0532 98.3686 37.4837 98.3686 36.7588C98.3686 36.2756 98.4807 35.7665 98.7039 35.2315C98.945 34.6966 99.186 34.3427 99.4262 34.1702Z" fill="#FF0099"/>
<path d="M53.4062 51.9065C52.788 51.9065 52.2541 51.7959 51.8048 51.5747C51.3582 51.3535 51.0147 51.0562 50.7743 50.6827C50.5338 50.3064 50.4136 49.8885 50.4136 49.4288C50.4136 49.0898 50.4794 48.791 50.6111 48.5325C50.7457 48.2711 50.9303 48.0312 51.165 47.8129C51.4025 47.5917 51.6788 47.3748 51.9937 47.1622L53.8399 45.9773C54.0489 45.8451 54.1963 45.7058 54.2822 45.5593C54.3709 45.4128 54.4153 45.2663 54.4153 45.1198C54.4153 44.9618 54.3538 44.8181 54.2307 44.6889C54.1104 44.5596 53.9315 44.4964 53.6939 44.4992C53.5422 44.4992 53.4106 44.5309 53.2989 44.594C53.1873 44.6572 53.1 44.742 53.037 44.8483C52.9769 44.9546 52.9469 45.0752 52.9469 45.2102C52.9469 45.3854 52.9969 45.565 53.0971 45.7489C53.1973 45.9327 53.3318 46.1281 53.5007 46.3349C53.6725 46.5417 53.8628 46.7701 54.0718 47.02L58.2839 51.7729H56.1456L52.6205 47.9335C52.4202 47.7095 52.2098 47.4581 51.9893 47.1794C51.769 46.9008 51.5829 46.5964 51.4312 46.266C51.2794 45.9327 51.2036 45.5708 51.2036 45.18C51.2036 44.7405 51.3067 44.3427 51.5128 43.9864C51.7188 43.6303 52.008 43.3473 52.3801 43.1376C52.7551 42.925 53.1916 42.8187 53.6896 42.8187C54.1705 42.8187 54.5856 42.9178 54.9348 43.1161C55.284 43.3143 55.5531 43.5771 55.742 43.9046C55.9309 44.2321 56.0254 44.5912 56.0254 44.9819C56.0254 45.3956 55.9238 45.7762 55.7205 46.1238C55.5173 46.4685 55.2296 46.7744 54.8576 47.0416L53.0499 48.3386C52.8581 48.4765 52.7079 48.6245 52.599 48.7825C52.4903 48.9375 52.4359 49.107 52.4359 49.2909C52.4359 49.4805 52.4802 49.6457 52.569 49.7864C52.6606 49.9272 52.7894 50.0378 52.9554 50.1182C53.1215 50.1987 53.3161 50.2389 53.5394 50.2389C53.8371 50.2389 54.1348 50.1685 54.4324 50.0278C54.7301 49.8841 55.0021 49.683 55.2482 49.4244C55.4944 49.1631 55.6919 48.8542 55.8408 48.498C55.9896 48.1389 56.0641 47.7454 56.0641 47.3174H57.7557C57.7557 47.8459 57.6999 48.3371 57.5882 48.791C57.4767 49.242 57.3092 49.6471 57.0859 50.0062C56.8655 50.3624 56.5922 50.6583 56.2658 50.8939C56.1628 50.9513 56.0626 51.0059 55.9653 51.0576C55.8679 51.1093 55.7678 51.1639 55.6647 51.2214C55.3269 51.4655 54.9606 51.6407 54.5655 51.747C54.1734 51.8533 53.7869 51.9065 53.4062 51.9065Z" fill="#FF0099"/>
<path d="M123.181 0.00012207C127.837 0.00012207 129.681 4.01579 129.681 11.376C129.681 20.2991 120.489 25.3114 120.562 25.2409C120.489 25.3114 123.733 23.9713 126.209 22.9042C129.982 24.4946 131.67 28.9653 131.67 28.9653C131.67 28.9653 134.82 36.1889 127.837 36.4028C120.852 36.4028 117.591 26.2533 116.598 22.8724C110.305 1.49263 123.181 0.00012207 123.181 0.00012207Z" fill="#FF0099"/>
<path d="M107.714 13.808C110.294 13.0166 113.679 20.9011 114.415 22.6328C115.151 24.3644 118.343 30.7828 116.082 31.5239C113.888 31.9285 112.201 27.3777 111.974 24.3094C107.177 18.9801 106.542 14.1672 107.714 13.808Z" fill="#FF0099"/>
</svg>
